<svg xmlns="http://www.w3.org/2000/svg" xmlns:xlink="http://www.w3.org/1999/xlink" width="100px" height="69px" viewBox="0 0 100 69" version="1.1">
<path id="White" d="M91.788162,41.0623053 L85.0903427,41.0623053 L85.1962617,45.376947 L90.6791277,45.3146417 C92.8598131,45.2928349 94.2461059,45.1900312 94.2461059,47.0654206 L94.2461059,47.376947 C87.6573209,47.5451713 82.7788162,49.2959502 82.7788162,54.0062305 C82.7788162,57.8411215 85.9470405,59.6760125 91.8130841,59.6760125 C95.2959502,59.6760125 98.1900312,59.1557632 99.8598131,58.2990654 L99.8598131,47.482866 C99.8598131,42.4766355 96.3582555,41.0623053 91.7943925,41.0623053 L91.788162,41.0623053 Z M94.2554517,55.2772586 C93.574558,55.5582292 92.8422313,55.6930197 92.105919,55.6728972 C89.7943925,55.6728972 88.4392523,55.2367601 88.4392523,53.8411215 C88.4392523,50.8598131 90.6884735,51.2554517 94.2554517,50.9657321 L94.2554517,55.2772586 Z M71.1464174,42.1028037 L71.1464174,42.0965732 C73.271028,41.1588785 77.2336449,40.8691589 82.3613707,41.0342679 L82.3613707,45.3956386 C80.7009346,45.2305296 78.1090343,45.271028 77.2741433,45.6261682 L77.2741433,59.4890966 L71.1464174,59.4890966 L71.1464174,42.1028037 Z M64.8971963,37.1401869 L64.8971963,41.0623053 L69.0436137,41.0623053 L69.0436137,45.3333333 L64.9034268,45.3333333 L64.9034268,53.5202492 C64.9034268,54.9158879 65.4672897,55.6666667 66.8006231,55.6666667 C67.2219098,55.6706417 67.6415773,55.6139866 68.046729,55.4984424 L68.046729,59.2367601 C67.1146841,59.590688 66.1246561,59.7671391 65.1277259,59.7570093 C60.8971963,59.7570093 58.7694704,57.2461059 58.7694704,54.4423676 L58.7694704,37.1401869 L64.8971963,37.1401869 Z M35.3987539,52.1713396 L23.2616822,52.1619938 C23.0560748,55.0186916 25.4143302,55.2274143 27.623053,55.2274143 L33.5015576,55.2274143 L33.6074766,59.4859813 L27.2897196,59.4859813 C20.8130841,59.4454829 16.7632399,57.2367601 16.7632399,50.2305296 C16.7632399,44.4641745 20.4953271,40.7258567 26.2897196,40.7258567 C33.8753894,40.7258567 35.3987539,44.8317757 35.3987539,52.1713396 Z M23.1401869,47.8099688 L29.7912773,47.8099688 C29.7912773,45.3894081 29.0404984,44.4735202 26.517134,44.4735202 C23.8286604,44.4735202 23.1401869,46.1619938 23.1401869,47.8099688 Z M83.0342679,9.56386293 L89.0373832,9.56386293 L89.0373832,34.05919 L83.0342679,34.05919 L83.0342679,9.56386293 Z M0,9.56386293 L5.87850467,9.56386293 L5.87850467,34.05919 L0,34.05919 L0,9.56386293 Z M80.1713396,26.7227414 L80.1682243,26.7227414 C80.1682243,31.165109 77.3333333,34.0623053 72.165109,34.0623053 L16.0560748,34.0623053 C15.1993769,38.6074766 11.6137072,41.2554517 7.44548287,41.4423676 L7.44548287,37.9190031 C9.44548287,37.2928349 10.3426791,36.0218069 10.3426791,32.3520249 L10.3426791,18.7383178 L16.2429907,18.7383178 L16.2429907,29.0996885 L20.6604361,29.0996885 L20.6604361,18.7383178 L26.728972,18.7383178 L26.728972,29.0996885 L33.1993769,29.0996885 L33.1993769,18.7383178 L39.2024922,18.7383178 L39.2024922,29.0996885 L43.05919,29.0996885 L43.05919,18.7383178 L49.105919,18.7383178 L49.105919,29.0996885 L52.9003115,29.0996885 L52.9003115,18.7383178 L58.9875389,18.7383178 L58.9875389,29.0965732 L71.6043614,29.0965732 C73.4392523,29.0965732 74.1495327,28.0342679 74.1495327,26.6791277 L74.1495327,24.7601246 C74.1495327,23.4267913 73.4392523,22.3426791 71.6043614,22.3426791 L68.7757009,22.3426791 L71.7352025,18.0311526 C71.8566978,18.0311526 72.0872274,18.0062305 72.1682243,18.0062305 C77.3364486,18.0062305 80.1713396,20.6978193 80.1713396,25.1370717 L80.1713396,26.7227414 Z M20.4143302,15.6635514 C18.8742163,15.6226509 17.6273421,14.3988921 17.5576324,12.8598131 C17.6243468,11.3193982 18.8729367,10.0939555 20.4143302,10.0560748 C21.9509924,10.1239781 23.1813178,11.3543036 23.2492212,12.8909657 C23.1546238,14.4051848 21.9302774,15.6026225 20.4143302,15.6635514 Z M26.6199377,15.6635514 L26.6105919,15.6542056 C25.0898386,15.5892707 23.8717885,14.3712206 23.8068536,12.8504673 C23.8672114,11.3268147 25.1256358,10.1259043 26.6504442,10.1368378 C28.1752527,10.1477714 29.4163265,11.3666043 29.4548287,12.8909657 C29.3745358,14.411694 28.1420745,15.6170681 26.6199377,15.6635514 Z" fill="#0066a5"></path>
<path id="Yellow" d="M28.5264798,68.6573209 L41.9190031,49.847352 L35.7912773,41.0623053 L43.1339564,41.0623053 L45.682243,44.6573209 L51.2211838,37.0155763 L58.2461059,37.0155763 L49.0996885,49.6915888 L56.4517134,59.4890966 L48.8629283,59.4890966 L45.376947,54.8504673 L35.6791277,68.6573209 L28.5264798,68.6573209 Z M77.3520249,7.10542736e-15 L84.3831776,7.10542736e-15 L68.7725857,22.3426791 L61.6012461,22.3426791 L77.3520249,7.10542736e-15 Z" fill="#FFE700"></path>
</svg>
