<svg id="Eng" xmlns="http://www.w3.org/2000/svg" viewBox="0 0 589.12 177.17"><defs><style>.cls-1{fill:#fc4513;}</style></defs><title>redsea_Logo_Offline_Eng_PMS</title><path class="cls-1" d="M320.85,227.52h-2.27V214.31a22.77,22.77,0,0,1,3.3-.25c3.48,0,5.37,1.54,5.37,4.32a4,4,0,0,1-2.63,3.93l4,5.21h-2.74l-3.52-4.7h-1.5Zm0-6.57H322c1.8,0,3-.78,3-2.5,0-1.52-1.05-2.41-3.05-2.41-.27,0-.78,0-1,.05Zm1.53,12a11.92,11.92,0,1,1,11.91-11.91A11.93,11.93,0,0,1,322.38,233Zm0-21.85a9.94,9.94,0,1,0,9.93,9.94A9.95,9.95,0,0,0,322.38,211.13Z" transform="translate(-126.38 -209.06)"/><path class="cls-1" d="M280.66,209.06H149.27a22.88,22.88,0,0,0-22.89,22.88V363.33a22.89,22.89,0,0,0,22.89,22.89H280.66a22.89,22.89,0,0,0,22.89-22.89V231.94a22.88,22.88,0,0,0-22.89-22.88m-22.1,83.45a32.26,32.26,0,0,0-32.26,32.26V357.6l-23.81,0V321.7a52.89,52.89,0,0,1,52.84-52.84h3.23Zm0-31h-3.23a60.26,60.26,0,0,0-60.19,60.19v35.9H171.37V320.14a82.57,82.57,0,0,1,82.48-82.47h4.71Z" transform="translate(-126.38 -209.06)"/><path class="cls-1" d="M366.65,343.71a8.67,8.67,0,0,1-8.6,9.06,8.37,8.37,0,0,1-6.85-3.19v2.73h-2.66V327.13h2.66v10.7a8.39,8.39,0,0,1,6.85-3.18A8.66,8.66,0,0,1,366.65,343.71Zm-2.58,0a6.32,6.32,0,0,0-6.44-6.71,6.7,6.7,0,0,0,0,13.39A6.31,6.31,0,0,0,364.07,343.71Z" transform="translate(-126.38 -209.06)"/><path class="cls-1" d="M376.09,358.26h-3l2.83-6.19-7.73-17h3l6.15,13.78,6.3-13.78h3Z" transform="translate(-126.38 -209.06)"/><path class="cls-1" d="M417,352.31l-2.62-5.94H402l-2.62,5.94h-3l10.5-23.43h2.55L420,352.31Zm-8.78-20-5.11,11.57h10.18Z" transform="translate(-126.38 -209.06)"/><path class="cls-1" d="M441.51,343.71a8.68,8.68,0,0,1-8.61,9.06,8.38,8.38,0,0,1-6.85-3.19v2.73h-2.66V327.13h2.66v10.7a8.4,8.4,0,0,1,6.85-3.18A8.67,8.67,0,0,1,441.51,343.71Zm-2.59,0a6.32,6.32,0,0,0-6.44-6.71,6.7,6.7,0,0,0,0,13.39A6.31,6.31,0,0,0,438.92,343.71Z" transform="translate(-126.38 -209.06)"/><path class="cls-1" d="M462.62,352.31H460v-2.73a8.35,8.35,0,0,1-6.85,3.19,9.07,9.07,0,0,1,0-18.12,8.37,8.37,0,0,1,6.85,3.18v-10.7h2.66Zm-2.66-8.6a6.49,6.49,0,0,0-6.43-6.71,6.7,6.7,0,0,0,0,13.39A6.49,6.49,0,0,0,460,343.71Z" transform="translate(-126.38 -209.06)"/><path class="cls-1" d="M484.47,352.28h-2.69v-2.8a7.52,7.52,0,0,1-6.51,3.25c-4.16,0-6.92-3-6.92-7.34V335.07H471v9.83c0,3.22,1.89,5.35,4.76,5.35,3.6,0,6-2.42,6-6.89v-8.29h2.69Z" transform="translate(-126.38 -209.06)"/><path class="cls-1" d="M490.58,352.31V327.13h2.66v25.18Z" transform="translate(-126.38 -209.06)"/><path class="cls-1" d="M524.4,352.31H508.21V328.88H511v20.91H524.4Z" transform="translate(-126.38 -209.06)"/><path class="cls-1" d="M545.06,352.31H542.4v-2.73a8.37,8.37,0,0,1-6.85,3.19,9.07,9.07,0,0,1,0-18.12,8.39,8.39,0,0,1,6.85,3.18v-2.76h2.66Zm-2.66-8.6A6.49,6.49,0,0,0,536,337a6.7,6.7,0,0,0,0,13.39A6.49,6.49,0,0,0,542.4,343.71Z" transform="translate(-126.38 -209.06)"/><path class="cls-1" d="M561.56,351.4a6.55,6.55,0,0,1-4,1.37c-3.42,0-5.7-2-5.7-5.84v-9.62h-3.74v-2.24h3.74v-5.49h2.7v5.49h6.15v2.24h-6.15v9.44c0,2.24,1.25,3.5,3.18,3.5a5.3,5.3,0,0,0,2.94-1.05Z" transform="translate(-126.38 -209.06)"/><path class="cls-1" d="M568.45,329.86a1.79,1.79,0,0,1-1.86,1.78,1.76,1.76,0,0,1-1.82-1.78,1.79,1.79,0,0,1,1.82-1.78A1.83,1.83,0,0,1,568.45,329.86Zm-3.19,22.45V335.07H568v17.24Z" transform="translate(-126.38 -209.06)"/><path class="cls-1" d="M577.67,337.31v15H575v-15h-3v-2.24h3v-2.55c0-3.64,2.31-6,5.91-6a6.22,6.22,0,0,1,2.8.63l-.67,2.16a5.68,5.68,0,0,0-2-.38,3.25,3.25,0,0,0-3.43,3.57v2.55h6.27v2.24Z" transform="translate(-126.38 -209.06)"/><path class="cls-1" d="M610.61,343.78c0,5.24-3.46,9-8.67,9-4.72,0-7.9-3.12-8.54-7.56l2.63-.59c.42,3.32,2.55,5.63,5.91,5.63,3.53,0,5.91-2.7,5.91-6.47v-14.9h2.76Z" transform="translate(-126.38 -209.06)"/><path class="cls-1" d="M632.81,352.31h-2.66v-2.73a8.37,8.37,0,0,1-6.85,3.19,9.07,9.07,0,0,1,0-18.12,8.39,8.39,0,0,1,6.85,3.18v-2.76h2.66Zm-2.66-8.6a6.49,6.49,0,0,0-6.43-6.71,6.7,6.7,0,0,0,0,13.39A6.49,6.49,0,0,0,630.15,343.71Z" transform="translate(-126.38 -209.06)"/><path class="cls-1" d="M666.31,341.15v11.16h-2.66v-10.7a4.25,4.25,0,0,0-4.44-4.51c-3.18,0-5.28,2.34-5.28,6.4v8.81h-2.66v-10.7a4.25,4.25,0,0,0-4.41-4.51c-3.18,0-5.24,2.34-5.24,6.4v8.81H639V335.07h2.66v2.62a6.64,6.64,0,0,1,5.87-3,6.23,6.23,0,0,1,5.88,3.5,7.35,7.35,0,0,1,6.5-3.5A6.23,6.23,0,0,1,666.31,341.15Z" transform="translate(-126.38 -209.06)"/><path class="cls-1" d="M687.84,344.23H673.05a6.28,6.28,0,0,0,6.15,6.19,5.94,5.94,0,0,0,5.88-3.7l2.38.55a8.29,8.29,0,0,1-8.26,5.5,9.06,9.06,0,0,1,.18-18.12c4.65,0,8.29,3.46,8.46,8.61Zm-14.69-2h12a5.7,5.7,0,0,0-5.77-5.24A6.2,6.2,0,0,0,673.15,342.24Z" transform="translate(-126.38 -209.06)"/><path class="cls-1" d="M708.22,344.23H693.43a6.28,6.28,0,0,0,6.15,6.19,5.93,5.93,0,0,0,5.88-3.7l2.38.55a8.28,8.28,0,0,1-8.26,5.5,9.06,9.06,0,0,1,.18-18.12c4.65,0,8.29,3.46,8.46,8.61Zm-14.69-2h12a5.69,5.69,0,0,0-5.77-5.24A6.2,6.2,0,0,0,693.53,342.24Z" transform="translate(-126.38 -209.06)"/><path class="cls-1" d="M712.8,352.31V327.13h2.65v25.18Z" transform="translate(-126.38 -209.06)"/><path class="cls-1" d="M387.61,242.73l-.83,11.91a32,32,0,0,0-3.45-.12c-15,0-22.4,10.48-22.4,26.69v20.84H348.54V243h12.39v12.63c4.76-7.86,12.27-13.34,22.52-13.34a12.73,12.73,0,0,1,4.16.48" transform="translate(-126.38 -209.06)"/><path class="cls-1" d="M449.24,275.49H401.35c1.19,11,9.17,17.51,17.87,17.51,6.55,0,13.22-1.91,17.39-10.24l11.08,2.38c-4.88,12.39-15.37,18.58-28.47,18.58-16.09,0-30.14-12.39-30.14-31.09S403,241.29,419.7,241.29c15.84,0,28.94,12.16,29.54,29.91Zm-47.54-8.82h34.79c-1.9-9.65-8.69-14.41-16.79-14.41-7.75,0-16.09,4.88-18,14.41" transform="translate(-126.38 -209.06)"/><path class="cls-1" d="M519.43,302.05H506.92v-6.67c-5.24,5.25-12.51,8.34-21.45,8.34-15.36,0-29.3-12.51-29.3-31.21s13.94-31.21,29.3-31.21c8.94,0,16.21,3.09,21.45,8.45V216.28h12.51Zm-12.51-29.54c0-12.39-9.53-20.25-19.42-20.25-10.72,0-19.18,7.86-19.18,20.25s8.46,20.25,19.18,20.25c9.89,0,19.42-7.74,19.42-20.25" transform="translate(-126.38 -209.06)"/><path class="cls-1" d="M539.62,283.59c.84,7,7,10,14.78,10,7.14,0,11.67-3.22,11.67-7.87,0-3.57-2.5-5.83-8-7l-12.87-2.63c-10.24-2.26-16.08-7.74-16.08-16.08,0-11,9.17-18.7,23.35-18.7,13.58,0,22.76,7.14,24.9,17l-11.8,2.5c-1-5.71-5.83-9.65-13.46-9.65-7.27,0-10.48,3.58-10.48,7.75,0,3.33,1.9,5.48,7.15,6.67l14.05,3.09c9.54,2,15.37,7.63,15.37,16,0,12.39-10.12,19.06-24.9,19.06-13.22,0-24.54-5.59-26.09-17.51Z" transform="translate(-126.38 -209.06)"/><path class="cls-1" d="M645.67,275.49H597.78C599,286.45,607,293,615.65,293c6.55,0,13.22-1.91,17.39-10.24l11.08,2.38c-4.88,12.39-15.36,18.58-28.47,18.58-16.09,0-30.14-12.39-30.14-31.09s13.94-31.34,30.62-31.34c15.84,0,29,12.16,29.54,29.91Zm-47.53-8.82h34.78c-1.9-9.65-8.69-14.41-16.79-14.41-7.75,0-16.09,4.88-18,14.41" transform="translate(-126.38 -209.06)"/><path class="cls-1" d="M715.51,302.05h-12.4v-6.78c-5.12,5.36-12.51,8.45-21.44,8.45-15.49,0-29.31-12.51-29.31-31.21s13.82-31.21,29.31-31.21c8.93,0,16.32,3.09,21.44,8.45V243h12.4Zm-12.4-29.54c0-12.39-9.65-20.25-19.42-20.25-10.84,0-19.3,7.86-19.3,20.25s8.46,20.25,19.3,20.25c9.77,0,19.42-7.74,19.42-20.25" transform="translate(-126.38 -209.06)"/></svg>